<?xml version="1.0" encoding="UTF-8" standalone="no"?>
<!-- Created with Inkscape (http://www.inkscape.org/) -->

<svg
   width="5.5893302mm"
   height="9.9981499mm"
   viewBox="0 0 5.5893297 9.9981499"
   version="1.1"
   id="svg5"
   sodipodi:docname="euro.svg"
   inkscape:version="1.1.1 (3bf5ae0d25, 2021-09-20)"
   xmlns:inkscape="http://www.inkscape.org/namespaces/inkscape"
   xmlns:sodipodi="http://sodipodi.sourceforge.net/DTD/sodipodi-0.dtd"
   xmlns="http://www.w3.org/2000/svg"
   xmlns:svg="http://www.w3.org/2000/svg">
  <sodipodi:namedview
     id="namedview7"
     pagecolor="#ffffff"
     bordercolor="#cccccc"
     borderopacity="1"
     inkscape:pageshadow="0"
     inkscape:pageopacity="1"
     inkscape:pagecheckerboard="0"
     inkscape:document-units="mm"
     showgrid="false"
     inkscape:zoom="10.248373"
     inkscape:cx="23.906235"
     inkscape:cy="24.930788"
     inkscape:window-width="1920"
     inkscape:window-height="1017"
     inkscape:window-x="1912"
     inkscape:window-y="-8"
     inkscape:window-maximized="1"
     inkscape:current-layer="layer1" />
  <defs
     id="defs2" />
  <g
     inkscape:label="Layer 1"
     inkscape:groupmode="layer"
     id="layer1"
     transform="translate(-44.361965,-117.68382)">
    <path
       id="path6048"
       style="color:#000000;fill:#000000;stroke-width:0.889201;-inkscape-stroke:none"
       d="m 48.274415,117.6862 c -0.18413,9.1e-4 -0.36799,0.0217 -0.54883,0.062 -0.72321,0.16129 -1.40256,0.6339 -1.90323,1.38855 -0.32607,0.4915 -0.5457,1.05681 -0.65939,1.64796 h -0.52917 l -0.27183,0.59583 h 0.72297 c -0.0252,0.35179 -0.0145,0.70685 0.0326,1.05575 h -0.39481 l -0.27234,0.59583 h 0.78446 c 0.12462,0.47501 0.3206,0.92674 0.58756,1.32912 1.00132,1.5093 2.71891,1.89308 4.06797,0.90795 l -0.23926,-0.52555 c -1.15044,0.84008 -2.5056,0.51554 -3.35949,-0.77153 -0.1913,-0.28836 -0.33986,-0.60615 -0.44546,-0.93999 h 1.76321 l 0.27234,-0.59583 h -2.17559 c -0.0557,-0.34781 -0.0686,-0.70397 -0.0388,-1.05575 h 2.74764 l 0.27234,-0.59583 h -2.92695 c 0.10339,-0.44994 0.28006,-0.87918 0.53123,-1.25781 0.85153,-1.2835 2.20128,-1.61007 3.35018,-0.77876 l 0.30953,-0.47387 c -0.50347,-0.36496 -1.12778,-0.59078 -1.67687,-0.58808 z" />
  </g>
</svg>
