<?xml version="1.0" encoding="UTF-8" standalone="no"?>
<!-- Created with Inkscape (http://www.inkscape.org/) -->

<svg
   width="6.4579105mm"
   height="10.295002mm"
   viewBox="0 0 6.4579103 10.295002"
   version="1.1"
   id="svg5"
   sodipodi:docname="0.svg"
   inkscape:version="1.1.1 (3bf5ae0d25, 2021-09-20)"
   xmlns:inkscape="http://www.inkscape.org/namespaces/inkscape"
   xmlns:sodipodi="http://sodipodi.sourceforge.net/DTD/sodipodi-0.dtd"
   xmlns="http://www.w3.org/2000/svg"
   xmlns:svg="http://www.w3.org/2000/svg">
  <sodipodi:namedview
     id="namedview7"
     pagecolor="#ffffff"
     bordercolor="#cccccc"
     borderopacity="1"
     inkscape:pageshadow="0"
     inkscape:pageopacity="1"
     inkscape:pagecheckerboard="0"
     inkscape:document-units="mm"
     showgrid="false"
     inkscape:zoom="13.859127"
     inkscape:cx="26.985827"
     inkscape:cy="17.42534"
     inkscape:window-width="1920"
     inkscape:window-height="1017"
     inkscape:window-x="1912"
     inkscape:window-y="-8"
     inkscape:window-maximized="1"
     inkscape:current-layer="layer1" />
  <defs
     id="defs2" />
  <g
     inkscape:label="Layer 1"
     inkscape:groupmode="layer"
     id="layer1"
     transform="translate(-106.04818,-60.525227)">
    <path
       id="path30686"
       style="color:#000000;fill:#000000;stroke-width:1;-inkscape-stroke:none"
       d="m 109.27716,60.768037 c -1.70153,0 -3.10494,1.330802 -3.22098,3.003947 h -0.008 v 1.964743 c 0.004,1.147948 0.61871,2.20898 1.61333,2.783285 0.99806,0.576289 2.2307,0.576289 3.22876,0 0.9946,-0.574305 1.60859,-1.635337 1.61282,-2.783285 h 0.003 v -1.740482 -0.224261 h -0.008 c -0.11607,-1.673145 -1.51894,-3.003947 -3.22048,-3.003947 z m 0,0.99994 c 1.23653,0 2.2283,0.991738 2.2283,2.228268 v 1.728576 h -0.003 c 0,0.796899 -0.4231,1.531699 -1.11313,1.930135 -0.69003,0.39841 -1.53823,0.39841 -2.22827,0 -0.69003,-0.398436 -1.11363,-1.133236 -1.11363,-1.930135 v -1.728576 c 0,-1.23653 0.99227,-2.228268 2.2288,-2.228268 z" />
  </g>
</svg>
