<?xml version="1.0" encoding="UTF-8" standalone="no"?>
<!-- Created with Inkscape (http://www.inkscape.org/) -->

<svg
   width="5.5279498mm"
   height="10.295002mm"
   viewBox="0 0 5.5279496 10.295002"
   version="1.1"
   id="svg5"
   sodipodi:docname="2.svg"
   inkscape:version="1.1.1 (3bf5ae0d25, 2021-09-20)"
   xmlns:inkscape="http://www.inkscape.org/namespaces/inkscape"
   xmlns:sodipodi="http://sodipodi.sourceforge.net/DTD/sodipodi-0.dtd"
   xmlns="http://www.w3.org/2000/svg"
   xmlns:svg="http://www.w3.org/2000/svg">
  <sodipodi:namedview
     id="namedview7"
     pagecolor="#ffffff"
     bordercolor="#cccccc"
     borderopacity="1"
     inkscape:pageshadow="0"
     inkscape:pageopacity="1"
     inkscape:pagecheckerboard="0"
     inkscape:document-units="mm"
     showgrid="false"
     inkscape:zoom="13.859127"
     inkscape:cx="26.985827"
     inkscape:cy="17.42534"
     inkscape:window-width="1920"
     inkscape:window-height="1017"
     inkscape:window-x="1912"
     inkscape:window-y="-8"
     inkscape:window-maximized="1"
     inkscape:current-layer="layer1" />
  <defs
     id="defs2" />
  <g
     inkscape:label="Layer 1"
     inkscape:groupmode="layer"
     id="layer1"
     transform="translate(-106.04818,-60.525227)">
    <path
       id="path31145"
       style="color:#000000;fill:#000000;stroke-width:1;-inkscape-stroke:none"
       d="m 108.79069,60.767683 c -1.0188,-0.01534 -1.9762,0.521468 -2.49081,1.412822 l 0.86714,0.500222 c 0.35579,-0.616268 1.03365,-0.968428 1.74252,-0.90641 0.70887,0.06202 1.31519,0.5266 1.55858,1.195282 0.24149,0.663548 0.0797,1.40335 -0.41447,1.906349 -0.004,0.004 -0.007,0.0079 -0.0114,0.01191 -1.07884,1.09265 -2.1821,2.060893 -3.23858,3.228234 l -0.75549,0.836137 h 5.40586 v -0.99994 h -3.0701 c 0.77701,-0.78269 1.55903,-1.537838 2.38282,-2.372995 l -0.003,-0.0026 c 0.7634,-0.776155 1.01515,-1.925373 0.64233,-2.949681 -0.37547,-1.031637 -1.31858,-1.753817 -2.41226,-1.84949 -0.0683,-0.0061 -0.13671,-0.0098 -0.20463,-0.01085 z" />
  </g>
</svg>
