<?xml version="1.0" encoding="UTF-8" standalone="no"?>
<!-- Created with Inkscape (http://www.inkscape.org/) -->

<svg
   width="6.4580002mm"
   height="10.295002mm"
   viewBox="0 0 6.4579999 10.295002"
   version="1.1"
   id="svg5"
   sodipodi:docname="9.svg"
   inkscape:version="1.1.1 (3bf5ae0d25, 2021-09-20)"
   xmlns:inkscape="http://www.inkscape.org/namespaces/inkscape"
   xmlns:sodipodi="http://sodipodi.sourceforge.net/DTD/sodipodi-0.dtd"
   xmlns="http://www.w3.org/2000/svg"
   xmlns:svg="http://www.w3.org/2000/svg">
  <sodipodi:namedview
     id="namedview7"
     pagecolor="#ffffff"
     bordercolor="#cccccc"
     borderopacity="1"
     inkscape:pageshadow="0"
     inkscape:pageopacity="1"
     inkscape:pagecheckerboard="0"
     inkscape:document-units="mm"
     showgrid="false"
     inkscape:zoom="13.859127"
     inkscape:cx="26.985827"
     inkscape:cy="17.42534"
     inkscape:window-width="1920"
     inkscape:window-height="1017"
     inkscape:window-x="1912"
     inkscape:window-y="-8"
     inkscape:window-maximized="1"
     inkscape:current-layer="layer1" />
  <defs
     id="defs2" />
  <g
     inkscape:label="Layer 1"
     inkscape:groupmode="layer"
     id="layer1"
     transform="translate(-106.04818,-60.525227)">
    <path
       id="path30722"
       style="color:#000000;fill:#000000;stroke-width:1;-inkscape-stroke:none"
       d="m 109.27691,60.778588 c -1.77696,0 -3.22873,1.45124 -3.22873,3.228208 0,1.776968 1.45177,3.228763 3.22873,3.228763 0.3364,0 0.66093,-0.05194 0.96637,-0.148325 l -0.92348,1.864995 h 1.10641 l 1.67275,-3.379629 v 0 c 0.25911,-0.464211 0.40722,-0.99814 0.40722,-1.565275 0,-1.776968 -1.45127,-3.228207 -3.22823,-3.228207 z m 0,0.99994 c 1.23653,0 2.2283,0.991738 2.2283,2.228268 0,1.23653 -0.99177,2.228824 -2.2283,2.228824 -1.23653,0 -2.22879,-0.992294 -2.22879,-2.228824 0,-1.23653 0.99226,-2.228268 2.22879,-2.228268 z" />
  </g>
</svg>
