<?xml version="1.0" encoding="UTF-8" standalone="no"?>
<!-- Created with Inkscape (http://www.inkscape.org/) -->

<svg
   width="5.9593301mm"
   height="9.9981499mm"
   viewBox="0 0 5.9593296 9.9981499"
   version="1.1"
   id="svg5"
   sodipodi:docname="p.svg"
   inkscape:version="1.1.1 (3bf5ae0d25, 2021-09-20)"
   xmlns:inkscape="http://www.inkscape.org/namespaces/inkscape"
   xmlns:sodipodi="http://sodipodi.sourceforge.net/DTD/sodipodi-0.dtd"
   xmlns="http://www.w3.org/2000/svg"
   xmlns:svg="http://www.w3.org/2000/svg">
  <sodipodi:namedview
     id="namedview7"
     pagecolor="#ffffff"
     bordercolor="#cccccc"
     borderopacity="1"
     inkscape:pageshadow="0"
     inkscape:pageopacity="1"
     inkscape:pagecheckerboard="0"
     inkscape:document-units="mm"
     showgrid="false"
     inkscape:zoom="10.248373"
     inkscape:cx="35.029952"
     inkscape:cy="24.930788"
     inkscape:window-width="1920"
     inkscape:window-height="1017"
     inkscape:window-x="1912"
     inkscape:window-y="-8"
     inkscape:window-maximized="1"
     inkscape:current-layer="layer1" />
  <defs
     id="defs2" />
  <g
     inkscape:label="Layer 1"
     inkscape:groupmode="layer"
     id="layer1"
     transform="translate(-44.361965,-117.68382)">
    <path
       id="path5862"
       style="color:#000000;fill:#000000;stroke-width:1;-inkscape-stroke:none"
       d="m 47.342665,119.85557 c -1.03267,0 -1.94533,0.52906 -2.48047,1.33015 v -0.83974 h -0.50023 v 2.48822 4.84777 h 0.50023 v -3.19929 c 0.53514,0.80109 1.4478,1.33015 2.48047,1.33015 1.64164,0 2.97863,-1.33699 2.97863,-2.97863 0,-1.64164 -1.33699,-2.97863 -2.97863,-2.97863 z m 0,0.59583 c 1.32008,0 2.3828,1.06272 2.3828,2.3828 0,1.32009 -1.06272,2.38487 -2.3828,2.38487 -1.32009,0 -2.38487,-1.06478 -2.38487,-2.38487 0,-1.32008 1.06478,-2.3828 2.38487,-2.3828 z" />
  </g>
</svg>
