<?xml version="1.0" encoding="UTF-8" standalone="no"?>
<!-- Created with Inkscape (http://www.inkscape.org/) -->

<svg
   width="5.9569898mm"
   height="9.9981499mm"
   viewBox="0 0 5.9569893 9.9981499"
   version="1.1"
   id="svg5"
   sodipodi:docname="q.svg"
   inkscape:version="1.1.1 (3bf5ae0d25, 2021-09-20)"
   xmlns:inkscape="http://www.inkscape.org/namespaces/inkscape"
   xmlns:sodipodi="http://sodipodi.sourceforge.net/DTD/sodipodi-0.dtd"
   xmlns="http://www.w3.org/2000/svg"
   xmlns:svg="http://www.w3.org/2000/svg">
  <sodipodi:namedview
     id="namedview7"
     pagecolor="#ffffff"
     bordercolor="#cccccc"
     borderopacity="1"
     inkscape:pageshadow="0"
     inkscape:pageopacity="1"
     inkscape:pagecheckerboard="0"
     inkscape:document-units="mm"
     showgrid="false"
     inkscape:zoom="10.248373"
     inkscape:cx="35.029952"
     inkscape:cy="24.930788"
     inkscape:window-width="1920"
     inkscape:window-height="1017"
     inkscape:window-x="1912"
     inkscape:window-y="-8"
     inkscape:window-maximized="1"
     inkscape:current-layer="layer1" />
  <defs
     id="defs2" />
  <g
     inkscape:label="Layer 1"
     inkscape:groupmode="layer"
     id="layer1"
     transform="translate(-44.361965,-117.68382)">
    <path
       id="path5865"
       style="color:#000000;fill:#000000;stroke-width:1;-inkscape-stroke:none"
       d="m 47.340085,119.85557 c -1.64164,0 -2.97812,1.33699 -2.97812,2.97863 0,1.64164 1.33648,2.97863 2.97812,2.97863 1.0271,0 1.93492,-0.52338 2.47065,-1.31723 v 3.18637 h 0.50022 v -4.63383 c 0.005,-0.0706 0.008,-0.14205 0.008,-0.21394 0,-0.0719 -0.003,-0.1433 -0.008,-0.21394 v -2.27428 h -0.50022 v 0.82682 c -0.53573,-0.79385 -1.44355,-1.31723 -2.47065,-1.31723 z m 0,0.59583 c 1.32009,0 2.38486,1.06272 2.38486,2.3828 0,1.32009 -1.06477,2.38487 -2.38486,2.38487 -1.32008,0 -2.3828,-1.06478 -2.3828,-2.38487 0,-1.32008 1.06272,-2.3828 2.3828,-2.3828 z" />
  </g>
</svg>
