<?xml version="1.0" encoding="UTF-8" standalone="no"?>
<!-- Created with Inkscape (http://www.inkscape.org/) -->

<svg
   width="4.91856mm"
   height="9.9981499mm"
   viewBox="0 0 4.9185597 9.9981499"
   version="1.1"
   id="svg5"
   sodipodi:docname="2.svg"
   inkscape:version="1.1.1 (3bf5ae0d25, 2021-09-20)"
   xmlns:inkscape="http://www.inkscape.org/namespaces/inkscape"
   xmlns:sodipodi="http://sodipodi.sourceforge.net/DTD/sodipodi-0.dtd"
   xmlns="http://www.w3.org/2000/svg"
   xmlns:svg="http://www.w3.org/2000/svg">
  <sodipodi:namedview
     id="namedview7"
     pagecolor="#ffffff"
     bordercolor="#cccccc"
     borderopacity="1"
     inkscape:pageshadow="0"
     inkscape:pageopacity="1"
     inkscape:pagecheckerboard="0"
     inkscape:document-units="mm"
     showgrid="false"
     inkscape:zoom="10.248373"
     inkscape:cx="35.029952"
     inkscape:cy="24.930788"
     inkscape:window-width="1920"
     inkscape:window-height="1017"
     inkscape:window-x="1912"
     inkscape:window-y="-8"
     inkscape:window-maximized="1"
     inkscape:current-layer="layer1" />
  <defs
     id="defs2" />
  <g
     inkscape:label="Layer 1"
     inkscape:groupmode="layer"
     id="layer1"
     transform="translate(-44.361965,-117.68382)">
    <path
       id="path5868"
       style="color:#000000;fill:#000000;stroke-width:1;-inkscape-stroke:none"
       d="m 46.674485,117.82946 c -0.94609,-0.0141 -1.83459,0.48475 -2.31252,1.31258 l 0.51366,0.29869 c 0.3949,-0.68398 1.14901,-1.07652 1.9358,-1.00769 0.7868,0.0688 1.46206,0.58592 1.73219,1.32808 0.27012,0.74218 0.0861,1.57061 -0.47232,2.12907 v 5.2e-4 l -3.70262,3.91811 4.91185,0.004 v -0.59376 l -3.53312,-0.004 2.7435,-2.90318 c 0.002,-0.002 0.004,-0.004 0.007,-0.007 0.71575,-0.72093 0.95226,-1.79198 0.60462,-2.74712 -0.34874,-0.95812 -1.22237,-1.62989 -2.23811,-1.71876 -0.0635,-0.006 -0.12658,-0.009 -0.18965,-0.01 z" />
  </g>
</svg>
