<?xml version="1.0" encoding="UTF-8" standalone="no"?>
<!-- Created with Inkscape (http://www.inkscape.org/) -->

<svg
   width="7.4441009mm"
   height="9.9981499mm"
   viewBox="0 0 7.4441007 9.9981499"
   version="1.1"
   id="svg5"
   sodipodi:docname="c.svg"
   inkscape:version="1.1.1 (3bf5ae0d25, 2021-09-20)"
   xmlns:inkscape="http://www.inkscape.org/namespaces/inkscape"
   xmlns:sodipodi="http://sodipodi.sourceforge.net/DTD/sodipodi-0.dtd"
   xmlns="http://www.w3.org/2000/svg"
   xmlns:svg="http://www.w3.org/2000/svg">
  <sodipodi:namedview
     id="namedview7"
     pagecolor="#ffffff"
     bordercolor="#cccccc"
     borderopacity="1"
     inkscape:pageshadow="0"
     inkscape:pageopacity="1"
     inkscape:pagecheckerboard="0"
     inkscape:document-units="mm"
     showgrid="false"
     inkscape:zoom="10.248373"
     inkscape:cx="35.029952"
     inkscape:cy="24.930788"
     inkscape:window-width="1920"
     inkscape:window-height="1017"
     inkscape:window-x="1912"
     inkscape:window-y="-8"
     inkscape:window-maximized="1"
     inkscape:current-layer="layer1" />
  <defs
     id="defs2" />
  <g
     inkscape:label="Layer 1"
     inkscape:groupmode="layer"
     id="layer1"
     transform="translate(-44.361965,-117.68382)">
    <path
       id="path8354"
       style="color:#000000;fill:#000000;stroke-width:1;-inkscape-stroke:none"
       d="m 48.392838,117.83367 c -0.612488,-0.006 -1.231104,0.12908 -1.805574,0.41238 -1.531922,0.75546 -2.414029,2.40396 -2.191081,4.09742 0.222948,1.69346 1.502333,3.05933 3.177584,3.39256 1.675251,0.33322 3.378263,-0.43849 4.232299,-1.91772 l -0.515732,-0.29713 c -0.727699,1.26042 -2.173893,1.91484 -3.601329,1.6309 -1.427435,-0.28393 -2.513226,-1.44369 -2.703194,-2.88664 -0.189968,-1.44295 0.559693,-2.84239 1.865002,-3.48609 1.305309,-0.64371 2.871415,-0.38473 3.900539,0.6444 l 0.422195,-0.42168 c -0.603895,-0.60389 -1.368008,-0.98245 -2.17196,-1.11517 -0.200988,-0.0332 -0.404586,-0.0512 -0.608749,-0.0532 z" />
  </g>
</svg>
