<?xml version="1.0" encoding="UTF-8" standalone="no"?>
<!-- Created with Inkscape (http://www.inkscape.org/) -->

<svg
   width="7.8507624mm"
   height="10.295002mm"
   viewBox="0 0 7.8507621 10.295002"
   version="1.1"
   id="svg5"
   sodipodi:docname="ampersand.svg"
   inkscape:version="1.1.1 (3bf5ae0d25, 2021-09-20)"
   xmlns:inkscape="http://www.inkscape.org/namespaces/inkscape"
   xmlns:sodipodi="http://sodipodi.sourceforge.net/DTD/sodipodi-0.dtd"
   xmlns="http://www.w3.org/2000/svg"
   xmlns:svg="http://www.w3.org/2000/svg">
  <sodipodi:namedview
     id="namedview7"
     pagecolor="#ffffff"
     bordercolor="#cccccc"
     borderopacity="1"
     inkscape:pageshadow="0"
     inkscape:pageopacity="1"
     inkscape:pagecheckerboard="0"
     inkscape:document-units="mm"
     showgrid="false"
     inkscape:zoom="13.859127"
     inkscape:cx="26.985827"
     inkscape:cy="17.42534"
     inkscape:window-width="1920"
     inkscape:window-height="1017"
     inkscape:window-x="1912"
     inkscape:window-y="-8"
     inkscape:window-maximized="1"
     inkscape:current-layer="layer1" />
  <defs
     id="defs2" />
  <g
     inkscape:label="Layer 1"
     inkscape:groupmode="layer"
     id="layer1"
     transform="translate(-106.04818,-60.525227)">
    <path
       id="path30986"
       style="color:#000000;fill:#000000;stroke-width:1;-inkscape-stroke:none"
       d="m 109.15091,60.591583 c -0.0905,0 -0.18121,0.0053 -0.2708,0.01693 -0.47773,0.06318 -0.93255,0.299668 -1.2614,0.6935 -0.65757,0.787426 -0.60597,1.958313 0.11729,2.6856 l 0.15968,0.159703 c -0.48721,0.198093 -0.92094,0.400182 -1.1348,0.634576 l 0.70691,0.705379 c 0.2543,-0.218043 0.67308,-0.425529 1.1338,-0.633042 l 1.7694,1.770962 c -0.30033,0.338191 -0.58269,0.611743 -0.8754,0.905378 -0.36312,0.365046 -0.88998,0.50636 -1.38494,0.373089 -0.49493,-0.133244 -0.88019,-0.522129 -1.01335,-1.021636 -0.13322,-0.49948 0.008,-1.029361 0.37102,-1.394221 v 0 l -0.70847,-0.70485 c -0.61399,0.616955 -0.85336,1.515745 -0.62889,2.357463 0.22445,0.841719 0.88101,1.502463 1.72082,1.728576 0.83979,0.226113 1.73935,-0.01614 2.35334,-0.633042 v 0 c 0.2735,-0.27432 0.56129,-0.554672 0.87281,-0.902785 l 1.42163,1.423168 1.39938,-0.0026 -2.18747,-2.19419 c 0.2608,-0.346842 0.53872,-0.754168 0.8382,-1.249018 l -0.85524,-0.51779 c -0.25111,0.41492 -0.48022,0.758481 -0.69453,1.052645 l -1.42057,-1.425231 c 0.56925,-0.263181 1.07323,-0.537686 1.28053,-0.844391 v 0 c 0.51133,-0.8899 0.25863,-2.034884 -0.58031,-2.62517 -0.34084,-0.239844 -0.73528,-0.357425 -1.12758,-0.359145 z m -0.007,0.996315 c 0.19304,0.0026 0.38791,0.06038 0.55914,0.180869 0.42154,0.296598 0.54695,0.859817 0.28888,1.308973 v 0 c -0.20633,0.253498 -0.61907,0.466937 -1.08726,0.666115 l -0.45889,-0.460427 c 0,0 0,0 0,0 -0.36383,-0.366104 -0.38962,-0.94279 -0.0584,-1.339454 0.19677,-0.235611 0.47548,-0.357134 0.75758,-0.355018 z" />
  </g>
</svg>
