<?xml version="1.0" encoding="UTF-8" standalone="no"?>
<!-- Created with Inkscape (http://www.inkscape.org/) -->

<svg
   width="5.7448502mm"
   height="10.29744mm"
   viewBox="0 0 5.7448505 10.297439"
   version="1.1"
   id="svg5"
   sodipodi:docname="cent.svg"
   inkscape:version="1.1.1 (3bf5ae0d25, 2021-09-20)"
   xmlns:inkscape="http://www.inkscape.org/namespaces/inkscape"
   xmlns:sodipodi="http://sodipodi.sourceforge.net/DTD/sodipodi-0.dtd"
   xmlns="http://www.w3.org/2000/svg"
   xmlns:svg="http://www.w3.org/2000/svg">
  <sodipodi:namedview
     id="namedview7"
     pagecolor="#ffffff"
     bordercolor="#cccccc"
     borderopacity="1"
     inkscape:pageshadow="0"
     inkscape:pageopacity="1"
     inkscape:pagecheckerboard="0"
     inkscape:document-units="mm"
     showgrid="false"
     inkscape:zoom="13.859127"
     inkscape:cx="26.985827"
     inkscape:cy="17.42534"
     inkscape:window-width="1920"
     inkscape:window-height="1017"
     inkscape:window-x="1912"
     inkscape:window-y="-8"
     inkscape:window-maximized="1"
     inkscape:current-layer="layer1" />
  <defs
     id="defs2" />
  <g
     inkscape:label="Layer 1"
     inkscape:groupmode="layer"
     id="layer1"
     transform="translate(-106.04818,-60.522789)">
    <path
       id="path30713"
       style="color:#000000;fill:#000000;stroke-width:1;-inkscape-stroke:none;paint-order:stroke markers fill"
       d="m 109.22419,60.522789 -0.21238,1.138423 c -0.42421,0.01588 -0.84844,0.119751 -1.24592,0.315754 -1.18126,0.582533 -1.86328,1.856237 -1.69138,3.162062 0.14346,1.089633 0.85447,2.003954 1.83661,2.426202 l -0.2584,1.386999 h 0.96378 l 0.21444,-1.151334 c 1.18981,0.114803 2.35543,-0.472652 2.96209,-1.523418 l -0.86505,-0.499719 c -0.39609,0.686065 -1.13859,1.076987 -1.91255,1.034548 l 0.7555,-4.051935 c 0.30408,0.0993 0.58732,0.270007 0.82476,0.507471 l 0.70746,-0.706941 c -0.38272,-0.382719 -0.8492,-0.648996 -1.34773,-0.78859 l 0.23307,-1.249522 z m -0.40254,2.157995 -0.72038,3.864875 c -0.55665,-0.315119 -0.94763,-0.877544 -1.03457,-1.537891 -0.11647,-0.88482 0.34009,-1.740032 1.14051,-2.134738 0.19767,-0.0975 0.40489,-0.160999 0.61444,-0.192246 z" />
  </g>
</svg>
