<?xml version="1.0" encoding="UTF-8" standalone="no"?>
<!-- Created with Inkscape (http://www.inkscape.org/) -->

<svg
   width="1.2996603mm"
   height="10.295002mm"
   viewBox="0 0 1.2996603 10.295001"
   version="1.1"
   id="svg5"
   sodipodi:docname="colon.svg"
   inkscape:version="1.1.1 (3bf5ae0d25, 2021-09-20)"
   xmlns:inkscape="http://www.inkscape.org/namespaces/inkscape"
   xmlns:sodipodi="http://sodipodi.sourceforge.net/DTD/sodipodi-0.dtd"
   xmlns="http://www.w3.org/2000/svg"
   xmlns:svg="http://www.w3.org/2000/svg">
  <sodipodi:namedview
     id="namedview7"
     pagecolor="#ffffff"
     bordercolor="#cccccc"
     borderopacity="1"
     inkscape:pageshadow="0"
     inkscape:pageopacity="1"
     inkscape:pagecheckerboard="0"
     inkscape:document-units="mm"
     showgrid="false"
     inkscape:zoom="13.859127"
     inkscape:cx="26.985827"
     inkscape:cy="17.42534"
     inkscape:window-width="1920"
     inkscape:window-height="1017"
     inkscape:window-x="1912"
     inkscape:window-y="-8"
     inkscape:window-maximized="1"
     inkscape:current-layer="layer1" />
  <defs
     id="defs2" />
  <g
     inkscape:label="Layer 1"
     inkscape:groupmode="layer"
     id="layer1"
     transform="translate(-106.04818,-60.525227)">
    <path
       id="circle31310"
       style="fill:#000000;stroke:none;stroke-width:0.749329;stroke-miterlimit:4;stroke-dasharray:none"
       d="m 106.69776,62.688537 a 0.64999996,0.64999996 0 0 0 -0.64958,0.650081 0.64999996,0.64999996 0 0 0 0.64958,0.650081 0.64999996,0.64999996 0 0 0 0.65008,-0.650081 0.64999996,0.64999996 0 0 0 -0.65008,-0.650081 z m 0,4.964033 a 0.64999996,0.64999996 0 0 0 -0.64958,0.650081 0.64999996,0.64999996 0 0 0 0.64958,0.649578 0.64999996,0.64999996 0 0 0 0.65008,-0.649578 0.64999996,0.64999996 0 0 0 -0.65008,-0.650081 z" />
  </g>
</svg>
