<?xml version="1.0" encoding="UTF-8" standalone="no"?>
<!-- Created with Inkscape (http://www.inkscape.org/) -->

<svg
   width="8.3731308mm"
   height="10.295002mm"
   viewBox="0 0 8.3731313 10.295002"
   version="1.1"
   id="svg5"
   sodipodi:docname="copyright.svg"
   inkscape:version="1.1.1 (3bf5ae0d25, 2021-09-20)"
   xmlns:inkscape="http://www.inkscape.org/namespaces/inkscape"
   xmlns:sodipodi="http://sodipodi.sourceforge.net/DTD/sodipodi-0.dtd"
   xmlns="http://www.w3.org/2000/svg"
   xmlns:svg="http://www.w3.org/2000/svg">
  <sodipodi:namedview
     id="namedview7"
     pagecolor="#ffffff"
     bordercolor="#cccccc"
     borderopacity="1"
     inkscape:pageshadow="0"
     inkscape:pageopacity="1"
     inkscape:pagecheckerboard="0"
     inkscape:document-units="mm"
     showgrid="false"
     inkscape:zoom="13.859127"
     inkscape:cx="26.985827"
     inkscape:cy="17.42534"
     inkscape:window-width="1920"
     inkscape:window-height="1017"
     inkscape:window-x="1912"
     inkscape:window-y="-8"
     inkscape:window-maximized="1"
     inkscape:current-layer="layer1" />
  <defs
     id="defs2" />
  <g
     inkscape:label="Layer 1"
     inkscape:groupmode="layer"
     id="layer1"
     transform="translate(-106.04818,-60.525227)">
    <path
       id="path30899"
       style="color:#000000;fill:#000000;stroke-width:1;-inkscape-stroke:none"
       d="m 110.23553,60.577029 c -2.3064,0 -4.18735,1.881452 -4.18735,4.187852 0,2.306399 1.88095,4.187348 4.18735,4.187348 2.3064,0 4.18578,-1.880949 4.18578,-4.187348 0,-2.3064 -1.87938,-4.187852 -4.18578,-4.187852 z m 0,0.99994 c 1.76596,0 3.18584,1.42195 3.18584,3.187912 0,1.765961 -1.41988,3.187408 -3.18584,3.187408 -1.76596,0 -3.18741,-1.421447 -3.18741,-3.187408 0,-1.765962 1.42145,-3.187912 3.18741,-3.187912 z m 0.0233,0.845926 c -0.35994,-0.0042 -0.72292,0.07414 -1.05989,0.240294 -0.89858,0.443151 -1.41804,1.41478 -1.28725,2.408132 0.13075,0.993325 0.88442,1.796653 1.86705,1.992127 0.98267,0.195474 1.9852,-0.259397 2.48616,-1.127072 l -0.86712,-0.499718 c -0.28863,0.49993 -0.85754,0.759089 -1.42369,0.646483 -0.56616,-0.112607 -0.99492,-0.570257 -1.07022,-1.142577 -0.0754,-0.57232 0.22022,-1.125485 0.73793,-1.380781 0.51773,-0.255323 1.1349,-0.152374 1.54307,0.255799 l 0.70692,-0.70694 c -0.35423,-0.354224 -0.80299,-0.576739 -1.27538,-0.654738 -0.11808,-0.01958 -0.23762,-0.02963 -0.35758,-0.03101 z" />
  </g>
</svg>
