<?xml version="1.0" encoding="UTF-8" standalone="no"?>
<!-- Created with Inkscape (http://www.inkscape.org/) -->

<svg
   width="7.0934114mm"
   height="10.295447mm"
   viewBox="0 0 7.0934112 10.295447"
   version="1.1"
   id="svg5"
   sodipodi:docname="percent.svg"
   inkscape:version="1.1.1 (3bf5ae0d25, 2021-09-20)"
   xmlns:inkscape="http://www.inkscape.org/namespaces/inkscape"
   xmlns:sodipodi="http://sodipodi.sourceforge.net/DTD/sodipodi-0.dtd"
   xmlns="http://www.w3.org/2000/svg"
   xmlns:svg="http://www.w3.org/2000/svg">
  <sodipodi:namedview
     id="namedview7"
     pagecolor="#ffffff"
     bordercolor="#cccccc"
     borderopacity="1"
     inkscape:pageshadow="0"
     inkscape:pageopacity="1"
     inkscape:pagecheckerboard="0"
     inkscape:document-units="mm"
     showgrid="false"
     inkscape:zoom="13.859127"
     inkscape:cx="26.985827"
     inkscape:cy="17.42534"
     inkscape:window-width="1920"
     inkscape:window-height="1017"
     inkscape:window-x="1912"
     inkscape:window-y="-8"
     inkscape:window-maximized="1"
     inkscape:current-layer="layer1" />
  <defs
     id="defs2" />
  <g
     inkscape:label="Layer 1"
     inkscape:groupmode="layer"
     id="layer1"
     transform="translate(-106.04818,-60.524781)">
    <path
       id="path31124"
       style="color:#000000;fill:#000000;stroke-width:1;-inkscape-stroke:none"
       d="m 111.18588,60.524781 -0.003,0.0037 -0.003,-0.0026 c -0.89593,0.481806 -2.20773,0.63119 -3.52742,0.707972 -0.0864,-1.32e-4 -0.17365,0.0071 -0.26149,0.0217 -0.86828,0.14388 -1.46526,0.977609 -1.32138,1.845865 0.14391,0.868283 0.97761,1.463728 1.84589,1.319821 0.86829,-0.14388 1.4637,-0.976048 1.31982,-1.844331 -0.0269,-0.162401 -0.078,-0.315409 -0.14883,-0.455771 0,0 0,0 0,0 0.50226,-0.05882 0.99973,-0.144674 1.47487,-0.280088 l -3.35433,7.11118 h 1.10588 l 3.97547,-8.426873 z m -3.53518,1.708415 c 0.006,-1.06e-4 0.0122,0 0.018,0 v 0 c 0.005,0 0.0101,0 0.0151,0 0.28226,0.01058 0.51948,0.21463 0.56793,0.506968 0.0555,0.335095 -0.1615,0.638466 -0.49662,0.694002 -0.3351,0.05554 -0.64053,-0.161501 -0.69607,-0.496596 -0.0555,-0.335121 0.16304,-0.640556 0.49816,-0.696092 0.0314,-0.0053 0.0628,-0.0082 0.0935,-0.0087 z m 3.86747,3.251491 c -0.0802,0 -0.16098,0.0077 -0.24236,0.02117 -0.86829,0.143907 -1.46526,0.978138 -1.32138,1.846421 0.1439,0.868257 0.9776,1.463172 1.84589,1.319292 0.86825,-0.143907 1.4637,-0.975545 1.31982,-1.843829 -0.13041,-0.78687 -0.82643,-1.351253 -1.60197,-1.343051 z m 0.0145,0.999411 c 0.29662,-0.005 0.55065,0.203253 0.60097,0.506941 0.0555,0.335122 -0.1615,0.638493 -0.49659,0.694029 -0.33512,0.05554 -0.64056,-0.160999 -0.6961,-0.496094 -0.0555,-0.335121 0.16307,-0.641085 0.49816,-0.696595 0.0314,-0.0053 0.0629,-0.0077 0.0936,-0.0082 z" />
  </g>
</svg>
