<?xml version="1.0" encoding="UTF-8" standalone="no"?>
<!-- Created with Inkscape (http://www.inkscape.org/) -->

<svg
   width="4.6473179mm"
   height="10.295002mm"
   viewBox="0 0 4.6473179 10.295001"
   version="1.1"
   id="svg5"
   sodipodi:docname="question.svg"
   inkscape:version="1.1.1 (3bf5ae0d25, 2021-09-20)"
   xmlns:inkscape="http://www.inkscape.org/namespaces/inkscape"
   xmlns:sodipodi="http://sodipodi.sourceforge.net/DTD/sodipodi-0.dtd"
   xmlns="http://www.w3.org/2000/svg"
   xmlns:svg="http://www.w3.org/2000/svg">
  <sodipodi:namedview
     id="namedview7"
     pagecolor="#ffffff"
     bordercolor="#cccccc"
     borderopacity="1"
     inkscape:pageshadow="0"
     inkscape:pageopacity="1"
     inkscape:pagecheckerboard="0"
     inkscape:document-units="mm"
     showgrid="false"
     inkscape:zoom="13.859127"
     inkscape:cx="26.985827"
     inkscape:cy="17.42534"
     inkscape:window-width="1920"
     inkscape:window-height="1017"
     inkscape:window-x="1912"
     inkscape:window-y="-8"
     inkscape:window-maximized="1"
     inkscape:current-layer="layer1" />
  <defs
     id="defs2" />
  <g
     inkscape:label="Layer 1"
     inkscape:groupmode="layer"
     id="layer1"
     transform="translate(-106.04818,-60.525226)">
    <path
       id="path31007"
       style="color:#000000;fill:#000000;stroke-width:1;-inkscape-stroke:none"
       d="m 108.19432,60.525276 c -0.86482,0.0056 -1.69466,0.464291 -2.14614,1.250051 l 0.86714,0.497628 c 0.36407,-0.633598 1.11668,-0.907309 1.79885,-0.657833 0.68218,0.249502 1.08569,0.948372 0.95912,1.669679 -0.12637,0.72009 -0.74105,1.238488 -1.46503,1.240234 v -0.0026 c -0.47781,0 -0.93818,0.192431 -1.27537,0.531257 -0.33718,0.338798 -0.52504,0.797163 -0.52504,1.275371 v 0.609785 h 0.99994 v -0.61341 c 0,-0.213281 0.0846,-0.416137 0.2341,-0.566367 0.14952,-0.150257 0.35235,-0.235718 0.56275,-0.236697 v 0.0026 c 1.20652,0 2.24414,-0.875427 2.45308,-2.066025 0.20894,-1.190625 -0.46601,-2.368815 -1.59938,-2.783311 -0.28334,-0.103611 -0.57576,-0.152188 -0.86402,-0.150362 z m -1.28675,7.231063 a 0.64999996,0.64999996 0 0 0 -0.65011,0.650107 0.64999996,0.64999996 0 0 0 0.65011,0.650082 0.64999996,0.64999996 0 0 0 0.65008,-0.650082 0.64999996,0.64999996 0 0 0 -0.65008,-0.650107 z" />
  </g>
</svg>
