<?xml version="1.0" encoding="UTF-8" standalone="no"?>
<!-- Created with Inkscape (http://www.inkscape.org/) -->

<svg
   width="8.3731308mm"
   height="10.295002mm"
   viewBox="0 0 8.3731313 10.295002"
   version="1.1"
   id="svg5"
   sodipodi:docname="registered.svg"
   inkscape:version="1.1.1 (3bf5ae0d25, 2021-09-20)"
   xmlns:inkscape="http://www.inkscape.org/namespaces/inkscape"
   xmlns:sodipodi="http://sodipodi.sourceforge.net/DTD/sodipodi-0.dtd"
   xmlns="http://www.w3.org/2000/svg"
   xmlns:svg="http://www.w3.org/2000/svg">
  <sodipodi:namedview
     id="namedview7"
     pagecolor="#ffffff"
     bordercolor="#cccccc"
     borderopacity="1"
     inkscape:pageshadow="0"
     inkscape:pageopacity="1"
     inkscape:pagecheckerboard="0"
     inkscape:document-units="mm"
     showgrid="false"
     inkscape:zoom="13.859127"
     inkscape:cx="26.985827"
     inkscape:cy="17.42534"
     inkscape:window-width="1920"
     inkscape:window-height="1017"
     inkscape:window-x="1912"
     inkscape:window-y="-8"
     inkscape:window-maximized="1"
     inkscape:current-layer="layer1" />
  <defs
     id="defs2" />
  <g
     inkscape:label="Layer 1"
     inkscape:groupmode="layer"
     id="layer1"
     transform="translate(-106.04818,-60.525227)">
    <path
       id="path30710"
       style="color:#000000;fill:#000000;stroke-width:1;-inkscape-stroke:none"
       d="m 110.23552,60.577029 c -2.3064,0 -4.18734,1.881452 -4.18734,4.187852 0,2.306399 1.88094,4.187348 4.18734,4.187348 2.3064,0 4.18579,-1.880949 4.18579,-4.187348 0,-2.3064 -1.87939,-4.187852 -4.18579,-4.187852 z m 0,0.99994 c 1.76597,0 3.18585,1.42195 3.18585,3.187912 0,0.822086 -0.30795,1.569058 -0.81494,2.133203 l -1.09606,-0.973588 c 0.51273,-0.356208 0.85061,-0.949801 0.85061,-1.616948 0,-1.080029 -0.88525,-1.964743 -1.96528,-1.964743 h -1.75543 v 0.0026 h -0.13695 v 4.618831 h 0.99994 v -0.687281 h 0.90229 v -0.0026 c 0.0719,0 0.14295,-0.005 0.21288,-0.01296 l 0.78962,0.701252 h 1.13948 c -0.57949,0.610552 -1.39946,0.990653 -2.31201,0.990653 -1.76596,0 -3.1874,-1.421448 -3.1874,-3.187409 0,-1.765961 1.42144,-3.187912 3.1874,-3.187912 z m -0.73226,1.765776 h 0.89244 c 0.53959,0 0.96481,0.425212 0.96481,0.964803 0,0.539565 -0.42522,0.966867 -0.96481,0.966867 v 0.0026 h -0.89244 z" />
  </g>
</svg>
