<?xml version="1.0" encoding="UTF-8" standalone="no"?>
<!-- Created with Inkscape (http://www.inkscape.org/) -->

<svg
   width="1.3443904mm"
   height="10.295002mm"
   viewBox="0 0 1.3443904 10.295001"
   version="1.1"
   id="svg5"
   sodipodi:docname="semicolon.svg"
   inkscape:version="1.1.1 (3bf5ae0d25, 2021-09-20)"
   xmlns:inkscape="http://www.inkscape.org/namespaces/inkscape"
   xmlns:sodipodi="http://sodipodi.sourceforge.net/DTD/sodipodi-0.dtd"
   xmlns="http://www.w3.org/2000/svg"
   xmlns:svg="http://www.w3.org/2000/svg">
  <sodipodi:namedview
     id="namedview7"
     pagecolor="#ffffff"
     bordercolor="#cccccc"
     borderopacity="1"
     inkscape:pageshadow="0"
     inkscape:pageopacity="1"
     inkscape:pagecheckerboard="0"
     inkscape:document-units="mm"
     showgrid="false"
     inkscape:zoom="13.859127"
     inkscape:cx="26.985827"
     inkscape:cy="17.42534"
     inkscape:window-width="1920"
     inkscape:window-height="1017"
     inkscape:window-x="1912"
     inkscape:window-y="-8"
     inkscape:window-maximized="1"
     inkscape:current-layer="layer1" />
  <defs
     id="defs2" />
  <g
     inkscape:label="Layer 1"
     inkscape:groupmode="layer"
     id="layer1"
     transform="translate(-106.04818,-60.525227)">
    <path
       id="circle31388"
       style="fill:#000000;stroke:none;stroke-width:0.749329;stroke-miterlimit:4;stroke-dasharray:none"
       d="m 106.743,62.590229 a 0.64999996,0.64999996 0 0 0 -0.65009,0.650081 0.64999996,0.64999996 0 0 0 0.65009,0.650081 0.64999996,0.64999996 0 0 0 0.64957,-0.650081 0.64999996,0.64999996 0 0 0 -0.64957,-0.650081 z m -0.006,5.059124 c -0.0145,1.32e-4 -0.0292,0 -0.0439,0.0026 -0.0594,0.0045 -0.10038,0.01243 -0.15658,0.03101 -0.16719,0.05527 -0.30403,0.175498 -0.38034,0.334327 -0.0851,0.17706 -0.0851,0.385207 0,0.56224 0.0816,0.16973 0.23349,0.294772 0.41082,0.34417 -0.0731,0.235744 -0.21971,0.512842 -0.51882,0.869209 l 0.22788,-0.0048 c 0.45151,-0.375762 0.81256,-0.770705 1.04595,-1.193218 l -0.003,-0.0026 c 0,-0.0026 0.003,-0.0034 0.003,-0.005 0.0393,-0.07924 0.0597,-0.15121 0.0667,-0.240824 0.0212,-0.260218 -0.12213,-0.512207 -0.35761,-0.628888 -0.0935,-0.0462 -0.19169,-0.06921 -0.29353,-0.06821 z" />
  </g>
</svg>
