<?xml version="1.0" encoding="UTF-8" standalone="no"?>
<!-- Created with Inkscape (http://www.inkscape.org/) -->

<svg
   width="7.6382017mm"
   height="10.295002mm"
   viewBox="0 0 7.6382017 10.295002"
   version="1.1"
   id="svg5"
   sodipodi:docname="c.svg"
   inkscape:version="1.1.1 (3bf5ae0d25, 2021-09-20)"
   xmlns:inkscape="http://www.inkscape.org/namespaces/inkscape"
   xmlns:sodipodi="http://sodipodi.sourceforge.net/DTD/sodipodi-0.dtd"
   xmlns="http://www.w3.org/2000/svg"
   xmlns:svg="http://www.w3.org/2000/svg">
  <sodipodi:namedview
     id="namedview7"
     pagecolor="#ffffff"
     bordercolor="#cccccc"
     borderopacity="1"
     inkscape:pageshadow="0"
     inkscape:pageopacity="1"
     inkscape:pagecheckerboard="0"
     inkscape:document-units="mm"
     showgrid="false"
     inkscape:zoom="13.859127"
     inkscape:cx="23.089477"
     inkscape:cy="18.002577"
     inkscape:window-width="1920"
     inkscape:window-height="1017"
     inkscape:window-x="1912"
     inkscape:window-y="-8"
     inkscape:window-maximized="1"
     inkscape:current-layer="layer1" />
  <defs
     id="defs2" />
  <g
     inkscape:label="Layer 1"
     inkscape:groupmode="layer"
     id="layer1"
     transform="translate(-106.04818,-60.525227)">
    <path
       id="path30863"
       style="color:#000000;fill:#000000;stroke-width:1;-inkscape-stroke:none"
       d="m 110.18324,60.766141 c -0.62845,-0.0066 -1.26302,0.131181 -1.85209,0.421667 -1.57083,0.774647 -2.47653,2.468959 -2.24792,4.20542 0.22861,1.736487 1.54195,3.138725 3.25975,3.480408 1.7178,0.34171 3.46767,-0.45204 4.3434,-1.96887 l -0.86713,-0.500221 c -0.6634,1.149032 -1.97963,1.747123 -3.28093,1.488281 -1.30131,-0.258842 -2.28972,-1.315403 -2.4629,-2.630858 -0.17319,-1.315429 0.50915,-2.590747 1.69912,-3.177567 1.18997,-0.586845 2.61663,-0.350123 3.55482,0.588063 l 0.70693,-0.706913 c -0.61923,-0.619231 -1.40394,-1.00846 -2.2288,-1.144641 -0.20622,-0.03405 -0.41477,-0.05257 -0.62425,-0.05477 z" />
  </g>
</svg>
