<?xml version="1.0" encoding="UTF-8" standalone="no"?>
<!-- Created with Inkscape (http://www.inkscape.org/) -->

<svg
   width="8.2248297mm"
   height="9.9981499mm"
   viewBox="0 0 8.224829 9.9981499"
   version="1.1"
   id="svg5"
   sodipodi:docname="m.svg"
   inkscape:version="1.1.1 (3bf5ae0d25, 2021-09-20)"
   xmlns:inkscape="http://www.inkscape.org/namespaces/inkscape"
   xmlns:sodipodi="http://sodipodi.sourceforge.net/DTD/sodipodi-0.dtd"
   xmlns="http://www.w3.org/2000/svg"
   xmlns:svg="http://www.w3.org/2000/svg">
  <sodipodi:namedview
     id="namedview7"
     pagecolor="#ffffff"
     bordercolor="#cccccc"
     borderopacity="1"
     inkscape:pageshadow="0"
     inkscape:pageopacity="1"
     inkscape:pagecheckerboard="0"
     inkscape:document-units="mm"
     showgrid="false"
     inkscape:zoom="10.248373"
     inkscape:cx="35.029952"
     inkscape:cy="24.930788"
     inkscape:window-width="1920"
     inkscape:window-height="1017"
     inkscape:window-x="1912"
     inkscape:window-y="-8"
     inkscape:window-maximized="1"
     inkscape:current-layer="layer1" />
  <defs
     id="defs2" />
  <g
     inkscape:label="Layer 1"
     inkscape:groupmode="layer"
     id="layer1"
     transform="translate(-44.361965,-117.68382)">
    <path
       id="path5904"
       style="color:#000000;fill:#000000;stroke-width:1;-inkscape-stroke:none"
       d="m 44.361965,119.85349 v 5.95933 h 0.59584 v -3.30471 c 0,-1.1711 0.75433,-2.05879 1.6092,-2.05879 0.85437,0 1.60883,0.88665 1.60972,2.05672 v 0.002 3.30471 h 0.59531 v -3.30471 -0.002 c 8.9e-4,-1.17007 0.75535,-2.05672 1.60972,-2.05672 0.85437,0 1.61038,0.88665 1.61127,2.05672 v 0.002 3.30471 h 0.59377 v -3.30471 -0.002 c -9.2e-4,-1.43053 -0.95357,-2.65255 -2.20504,-2.65255 -0.83156,0 -1.53122,0.53971 -1.90737,1.32137 -0.37617,-0.78161 -1.07585,-1.32137 -1.90738,-1.32137 -0.64622,0 -1.21222,0.32615 -1.6092,0.83819 v -0.83819 z" />
  </g>
</svg>
