<?xml version="1.0" encoding="UTF-8" standalone="no"?>
<!-- Created with Inkscape (http://www.inkscape.org/) -->

<svg
   width="6.3608603mm"
   height="10.297995mm"
   viewBox="0 0 6.3608602 10.297995"
   version="1.1"
   id="svg5"
   sodipodi:docname="b.svg"
   inkscape:version="1.1.1 (3bf5ae0d25, 2021-09-20)"
   xmlns:inkscape="http://www.inkscape.org/namespaces/inkscape"
   xmlns:sodipodi="http://sodipodi.sourceforge.net/DTD/sodipodi-0.dtd"
   xmlns="http://www.w3.org/2000/svg"
   xmlns:svg="http://www.w3.org/2000/svg">
  <sodipodi:namedview
     id="namedview7"
     pagecolor="#ffffff"
     bordercolor="#cccccc"
     borderopacity="1"
     inkscape:pageshadow="0"
     inkscape:pageopacity="1"
     inkscape:pagecheckerboard="0"
     inkscape:document-units="mm"
     showgrid="false"
     inkscape:zoom="13.859127"
     inkscape:cx="26.985827"
     inkscape:cy="17.42534"
     inkscape:window-width="1920"
     inkscape:window-height="1017"
     inkscape:window-x="1912"
     inkscape:window-y="-8"
     inkscape:window-maximized="1"
     inkscape:current-layer="layer1" />
  <defs
     id="defs2" />
  <g
     inkscape:label="Layer 1"
     inkscape:groupmode="layer"
     id="layer1"
     transform="translate(-106.04818,-60.522234)">
    <path
       id="path30923"
       style="color:#000000;fill:#000000;stroke-width:1;-inkscape-stroke:none"
       d="m 106.04818,60.522234 v 5.248275 3.17963 h 0.99994 V 68.08302 c 0.56993,0.538268 1.33759,0.869209 2.17972,0.869209 1.75107,0 3.1812,-1.430655 3.1812,-3.18172 0,-1.751092 -1.43013,-3.18172 -3.1812,-3.18172 -0.84216,0 -1.60978,0.331417 -2.17972,0.869711 v -2.936266 z m 3.17966,3.066494 c 1.21063,0 2.18126,0.971127 2.18126,2.181781 0,1.210627 -0.97063,2.18178 -2.18126,2.18178 -1.21066,0 -2.17972,-0.971153 -2.17972,-2.18178 0,-1.210654 0.96906,-2.181781 2.17972,-2.181781 z" />
  </g>
</svg>
