<?xml version="1.0" encoding="UTF-8" standalone="no"?>
<!-- Created with Inkscape (http://www.inkscape.org/) -->

<svg
   width="5.9374304mm"
   height="10.295002mm"
   viewBox="0 0 5.9374302 10.295002"
   version="1.1"
   id="svg5"
   sodipodi:docname="c.svg"
   inkscape:version="1.1.1 (3bf5ae0d25, 2021-09-20)"
   xmlns:inkscape="http://www.inkscape.org/namespaces/inkscape"
   xmlns:sodipodi="http://sodipodi.sourceforge.net/DTD/sodipodi-0.dtd"
   xmlns="http://www.w3.org/2000/svg"
   xmlns:svg="http://www.w3.org/2000/svg">
  <sodipodi:namedview
     id="namedview7"
     pagecolor="#ffffff"
     bordercolor="#cccccc"
     borderopacity="1"
     inkscape:pageshadow="0"
     inkscape:pageopacity="1"
     inkscape:pagecheckerboard="0"
     inkscape:document-units="mm"
     showgrid="false"
     inkscape:zoom="13.859127"
     inkscape:cx="26.985827"
     inkscape:cy="17.42534"
     inkscape:window-width="1920"
     inkscape:window-height="1017"
     inkscape:window-x="1912"
     inkscape:window-y="-8"
     inkscape:window-maximized="1"
     inkscape:current-layer="layer1" />
  <defs
     id="defs2" />
  <g
     inkscape:label="Layer 1"
     inkscape:groupmode="layer"
     id="layer1"
     transform="translate(-106.04818,-60.525227)">
    <path
       id="path30926"
       style="color:#000000;fill:#000000;stroke-width:1;-inkscape-stroke:none"
       d="m 109.2633,62.59071 c -0.48876,-0.0053 -0.98196,0.101891 -1.43971,0.327634 -1.22067,0.60198 -1.92586,1.920187 -1.74821,3.269562 0.17765,1.349401 1.20036,2.437685 2.53525,2.703195 1.33487,0.265536 2.69446,-0.350414 3.37498,-1.529107 l -0.86713,-0.500221 c -0.46819,0.810922 -1.39621,1.231715 -2.31458,1.049047 -0.91839,-0.182695 -1.61411,-0.925275 -1.73633,-1.853645 -0.12222,-0.92837 0.35753,-1.828085 1.19734,-2.242238 0.83981,-0.414152 1.84574,-0.248205 2.50786,0.413914 l 0.70693,-0.706913 c -0.4812,-0.481198 -1.08937,-0.782955 -1.73064,-0.888842 -0.16032,-0.02648 -0.32284,-0.04064 -0.48576,-0.04239 z" />
  </g>
</svg>
