<?xml version="1.0" encoding="UTF-8" standalone="no"?>
<!-- Created with Inkscape (http://www.inkscape.org/) -->

<svg
   width="6.3613706mm"
   height="10.29744mm"
   viewBox="0 0 6.3613704 10.29744"
   version="1.1"
   id="svg5"
   sodipodi:docname="d.svg"
   inkscape:version="1.1.1 (3bf5ae0d25, 2021-09-20)"
   xmlns:inkscape="http://www.inkscape.org/namespaces/inkscape"
   xmlns:sodipodi="http://sodipodi.sourceforge.net/DTD/sodipodi-0.dtd"
   xmlns="http://www.w3.org/2000/svg"
   xmlns:svg="http://www.w3.org/2000/svg">
  <sodipodi:namedview
     id="namedview7"
     pagecolor="#ffffff"
     bordercolor="#cccccc"
     borderopacity="1"
     inkscape:pageshadow="0"
     inkscape:pageopacity="1"
     inkscape:pagecheckerboard="0"
     inkscape:document-units="mm"
     showgrid="false"
     inkscape:zoom="13.859127"
     inkscape:cx="26.985827"
     inkscape:cy="17.42534"
     inkscape:window-width="1920"
     inkscape:window-height="1017"
     inkscape:window-x="1912"
     inkscape:window-y="-8"
     inkscape:window-maximized="1"
     inkscape:current-layer="layer1" />
  <defs
     id="defs2" />
  <g
     inkscape:label="Layer 1"
     inkscape:groupmode="layer"
     id="layer1"
     transform="translate(-106.04818,-60.522789)">
    <path
       id="path30947"
       style="color:#000000;fill:#000000;stroke-width:1;-inkscape-stroke:none"
       d="m 111.40961,60.522789 v 2.936769 c -0.57054,-0.539035 -1.33897,-0.870743 -2.18178,-0.870743 -1.75108,0 -3.17965,1.430628 -3.17965,3.18172 0,1.751066 1.42857,3.181694 3.17965,3.181694 0.84281,0 1.61124,-0.331179 2.18178,-0.870215 v 0.866617 h 0.99994 v -3.178096 -5.247746 z m -2.18178,3.066468 c 1.21064,0 2.18178,0.970624 2.18178,2.181278 0,1.210628 -0.97114,2.181754 -2.18178,2.181754 -1.21064,0 -2.17972,-0.971126 -2.17972,-2.181754 0,-1.210654 0.96908,-2.181278 2.17972,-2.181278 z" />
  </g>
</svg>
