<?xml version="1.0" encoding="UTF-8" standalone="no"?>
<!-- Created with Inkscape (http://www.inkscape.org/) -->

<svg
   width="8.6289301mm"
   height="10.295002mm"
   viewBox="0 0 8.6289299 10.295002"
   version="1.1"
   id="svg5"
   sodipodi:docname="m.svg"
   inkscape:version="1.1.1 (3bf5ae0d25, 2021-09-20)"
   xmlns:inkscape="http://www.inkscape.org/namespaces/inkscape"
   xmlns:sodipodi="http://sodipodi.sourceforge.net/DTD/sodipodi-0.dtd"
   xmlns="http://www.w3.org/2000/svg"
   xmlns:svg="http://www.w3.org/2000/svg">
  <sodipodi:namedview
     id="namedview7"
     pagecolor="#ffffff"
     bordercolor="#cccccc"
     borderopacity="1"
     inkscape:pageshadow="0"
     inkscape:pageopacity="1"
     inkscape:pagecheckerboard="0"
     inkscape:document-units="mm"
     showgrid="false"
     inkscape:zoom="13.859127"
     inkscape:cx="26.985827"
     inkscape:cy="17.42534"
     inkscape:window-width="1920"
     inkscape:window-height="1017"
     inkscape:window-x="1912"
     inkscape:window-y="-8"
     inkscape:window-maximized="1"
     inkscape:current-layer="layer1" />
  <defs
     id="defs2" />
  <g
     inkscape:label="Layer 1"
     inkscape:groupmode="layer"
     id="layer1"
     transform="translate(-106.04818,-60.525227)">
    <path
       id="path31181"
       style="color:#000000;fill:#000000;stroke-width:1;-inkscape-stroke:none"
       d="m 108.45475,62.586725 c -0.53641,0 -1.01795,0.200131 -1.40663,0.533294 v -0.53123 h -0.99994 v 6.36135 h 0.99994 V 65.44441 c 0,-1.08249 0.68694,-1.857243 1.40663,-1.857243 0.71969,0 1.40819,0.774753 1.40819,1.857243 v 3.507819 h 0.99994 V 65.44441 c 0,-1.08249 0.68849,-1.857243 1.40819,-1.857243 0.71969,0 1.4061,0.774753 1.4061,1.857243 v 3.507819 h 0.99994 v -3.507819 -0.08422 0 c -0.0368,-1.484921 -1.04338,-2.773468 -2.40501,-2.773468 -0.79975,0 -1.47758,0.44487 -1.90842,1.112573 -0.43084,-0.667571 -1.10823,-1.112573 -1.90789,-1.112573 z" />
  </g>
</svg>
