<?xml version="1.0" encoding="UTF-8" standalone="no"?>
<!-- Created with Inkscape (http://www.inkscape.org/) -->

<svg
   width="6.4099503mm"
   height="10.295002mm"
   viewBox="0 0 6.4099501 10.295002"
   version="1.1"
   id="svg5"
   sodipodi:docname="p.svg"
   inkscape:version="1.1.1 (3bf5ae0d25, 2021-09-20)"
   xmlns:inkscape="http://www.inkscape.org/namespaces/inkscape"
   xmlns:sodipodi="http://sodipodi.sourceforge.net/DTD/sodipodi-0.dtd"
   xmlns="http://www.w3.org/2000/svg"
   xmlns:svg="http://www.w3.org/2000/svg">
  <sodipodi:namedview
     id="namedview7"
     pagecolor="#ffffff"
     bordercolor="#cccccc"
     borderopacity="1"
     inkscape:pageshadow="0"
     inkscape:pageopacity="1"
     inkscape:pagecheckerboard="0"
     inkscape:document-units="mm"
     showgrid="false"
     inkscape:zoom="13.859127"
     inkscape:cx="26.985827"
     inkscape:cy="17.42534"
     inkscape:window-width="1920"
     inkscape:window-height="1017"
     inkscape:window-x="1912"
     inkscape:window-y="-8"
     inkscape:window-maximized="1"
     inkscape:current-layer="layer1" />
  <defs
     id="defs2" />
  <g
     inkscape:label="Layer 1"
     inkscape:groupmode="layer"
     id="layer1"
     transform="translate(-106.04818,-60.525227)">
    <path
       id="path31136"
       style="color:#000000;fill:#000000;stroke-width:1;-inkscape-stroke:none"
       d="m 109.27641,62.58973 c -0.86598,0 -1.65335,0.350202 -2.22829,0.915696 v -0.222197 h -0.99994 v 7.537 h 0.99994 v -2.782781 c 0.57494,0.565546 1.36226,0.915696 2.22829,0.915696 1.75107,0 3.18172,-1.430628 3.18172,-3.181694 0,-1.751092 -1.43065,-3.18172 -3.18172,-3.18172 z m 0,1.000442 c 1.21063,0 2.18178,0.970624 2.18178,2.181278 0,1.210628 -0.97115,2.181754 -2.18178,2.181754 -1.21065,0 -2.18178,-0.971126 -2.18178,-2.181754 0,-1.210654 0.97113,-2.181278 2.18178,-2.181278 z" />
  </g>
</svg>
