<?xml version="1.0" encoding="UTF-8" standalone="no"?>
<!-- Created with Inkscape (http://www.inkscape.org/) -->

<svg
   width="1.8986599mm"
   height="9.9981499mm"
   viewBox="0 0 1.8986599 9.9981499"
   version="1.1"
   id="svg5"
   sodipodi:docname="0brace.svg"
   inkscape:version="1.1.1 (3bf5ae0d25, 2021-09-20)"
   xmlns:inkscape="http://www.inkscape.org/namespaces/inkscape"
   xmlns:sodipodi="http://sodipodi.sourceforge.net/DTD/sodipodi-0.dtd"
   xmlns="http://www.w3.org/2000/svg"
   xmlns:svg="http://www.w3.org/2000/svg">
  <sodipodi:namedview
     id="namedview7"
     pagecolor="#ffffff"
     bordercolor="#cccccc"
     borderopacity="1"
     inkscape:pageshadow="0"
     inkscape:pageopacity="1"
     inkscape:pagecheckerboard="0"
     inkscape:document-units="mm"
     showgrid="false"
     inkscape:zoom="10.248373"
     inkscape:cx="35.029952"
     inkscape:cy="24.930788"
     inkscape:window-width="1920"
     inkscape:window-height="1017"
     inkscape:window-x="1912"
     inkscape:window-y="-8"
     inkscape:window-maximized="1"
     inkscape:current-layer="layer1" />
  <defs
     id="defs2" />
  <g
     inkscape:label="Layer 1"
     inkscape:groupmode="layer"
     id="layer1"
     transform="translate(-44.361965,-117.68382)">
    <path
       id="path5760"
       style="color:#000000;fill:#000000;stroke-width:1;-inkscape-stroke:none"
       d="m 46.260565,117.68411 c -0.547,0 -0.94727,0.29419 -1.10176,0.68162 -0.15449,0.38742 -0.13896,0.82447 -0.11729,1.26193 0.0217,0.43746 0.0579,0.87689 0.0217,1.21647 -0.0363,0.33959 -0.12147,0.53498 -0.31832,0.64285 l -0.38293,0.21084 0.33589,0.27905 c 0.22301,0.18495 0.32038,0.4522 0.35554,0.81081 0.0352,0.35862 -0.002,0.78551 -0.0232,1.20303 -0.0211,0.41752 -0.0382,0.82812 0.12454,1.19527 0.16269,0.36715 0.56562,0.62627 1.10588,0.62684 v -0.59532 c -0.39331,-4.2e-4 -0.47956,-0.0886 -0.56071,-0.27181 -0.0812,-0.18315 -0.0966,-0.52651 -0.0765,-0.92553 0.0201,-0.39903 0.0649,-0.84976 0.0217,-1.29088 -0.0353,-0.3601 -0.22016,-0.69398 -0.46302,-0.98857 0.22799,-0.2418 0.4381,-0.50852 0.47284,-0.83405 0.0459,-0.42977 8.7e-4,-0.88819 -0.0196,-1.30845 -0.0208,-0.42026 -0.009,-0.80005 0.0765,-1.01389 0.0853,-0.21384 0.167,-0.30644 0.5488,-0.30644 z" />
  </g>
</svg>
