<?xml version="1.0" encoding="UTF-8" standalone="no"?>
<!-- Created with Inkscape (http://www.inkscape.org/) -->

<svg
   width="7.3755651mm"
   height="9.9981499mm"
   viewBox="0 0 7.3755646 9.9981499"
   version="1.1"
   id="svg5"
   sodipodi:docname="amp.svg"
   inkscape:version="1.1.1 (3bf5ae0d25, 2021-09-20)"
   xmlns:inkscape="http://www.inkscape.org/namespaces/inkscape"
   xmlns:sodipodi="http://sodipodi.sourceforge.net/DTD/sodipodi-0.dtd"
   xmlns="http://www.w3.org/2000/svg"
   xmlns:svg="http://www.w3.org/2000/svg">
  <sodipodi:namedview
     id="namedview7"
     pagecolor="#ffffff"
     bordercolor="#cccccc"
     borderopacity="1"
     inkscape:pageshadow="0"
     inkscape:pageopacity="1"
     inkscape:pagecheckerboard="0"
     inkscape:document-units="mm"
     showgrid="false"
     inkscape:zoom="10.248373"
     inkscape:cx="35.029952"
     inkscape:cy="24.930788"
     inkscape:window-width="1920"
     inkscape:window-height="1017"
     inkscape:window-x="1912"
     inkscape:window-y="-8"
     inkscape:window-maximized="1"
     inkscape:current-layer="layer1" />
  <defs
     id="defs2" />
  <g
     inkscape:label="Layer 1"
     inkscape:groupmode="layer"
     id="layer1"
     transform="translate(-44.361965,-117.68382)">
    <path
       id="path5691"
       style="color:#000000;fill:#000000;stroke-width:1;-inkscape-stroke:none"
       d="m 47.22233,117.85275 c -0.0676,0.001 -0.13507,0.007 -0.20204,0.0155 -0.4286,0.0567 -0.83693,0.2664 -1.13276,0.62064 -0.59163,0.70849 -0.54554,1.7602 0.10544,2.41432 l 0.42219,-0.42013 c -0.43709,-0.43921 -0.46775,-1.1353 -0.0703,-1.61127 0.39749,-0.47598 1.08146,-0.5669 1.5875,-0.21084 0.50493,0.35527 0.65646,1.03468 0.34986,1.57251 l -0.006,-0.003 c -0.23931,0.29402 -0.76292,0.54207 -1.3291,0.77774 l -0.52764,-0.52917 -0.005,0.004 -0.42635,0.42478 0.3483,0.34933 c -0.56428,0.23033 -1.08548,0.45998 -1.32498,0.72244 l 0.004,0.004 c -0.56283,0.5659 -0.78364,1.3915 -0.57773,2.16369 0.20596,0.77241 0.80823,1.37657 1.5782,1.58388 0.76999,0.20731 1.59274,-0.0144 2.15593,-0.58033 0.31509,-0.31607 0.6423,-0.63374 1.00097,-1.04955 l 1.70638,1.71153 h 0.85833 l -2.17815,-2.18488 c 0.28506,-0.36898 0.59118,-0.81081 0.92707,-1.36581 l -0.50953,-0.30644 c -0.307,0.50725 -0.58341,0.91065 -0.84027,1.2485 l -1.76371,-1.76888 c 0.62632,-0.27639 1.20121,-0.56492 1.42782,-0.9002 l -0.006,-0.003 c 0.46004,-0.80065 0.23302,-1.82667 -0.52141,-2.35747 -0.31827,-0.22397 -0.68723,-0.32876 -1.05214,-0.32195 z m -0.44855,3.84214 1.97972,1.98541 c -0.35137,0.41014 -0.67358,0.72115 -1.00251,1.0511 -0.41391,0.41578 -1.0155,0.57789 -1.58028,0.42582 -0.56477,-0.15207 -1.0043,-0.59549 -1.15599,-1.16427 -0.1516,-0.56856 0.01,-1.17316 0.42323,-1.58905 l 0.004,0.004 c 0.29223,-0.25061 0.79719,-0.4813 1.3322,-0.71262 z" />
  </g>
</svg>
