<?xml version="1.0" encoding="UTF-8" standalone="no"?>
<!-- Created with Inkscape (http://www.inkscape.org/) -->

<svg
   width="5.5585637mm"
   height="9.9981499mm"
   viewBox="0 0 5.5585632 9.9981499"
   version="1.1"
   id="svg5"
   sodipodi:docname="cent.svg"
   inkscape:version="1.1.1 (3bf5ae0d25, 2021-09-20)"
   xmlns:inkscape="http://www.inkscape.org/namespaces/inkscape"
   xmlns:sodipodi="http://sodipodi.sourceforge.net/DTD/sodipodi-0.dtd"
   xmlns="http://www.w3.org/2000/svg"
   xmlns:svg="http://www.w3.org/2000/svg">
  <sodipodi:namedview
     id="namedview7"
     pagecolor="#ffffff"
     bordercolor="#cccccc"
     borderopacity="1"
     inkscape:pageshadow="0"
     inkscape:pageopacity="1"
     inkscape:pagecheckerboard="0"
     inkscape:document-units="mm"
     showgrid="false"
     inkscape:zoom="10.248373"
     inkscape:cx="23.906235"
     inkscape:cy="24.930788"
     inkscape:window-width="1920"
     inkscape:window-height="1017"
     inkscape:window-x="1912"
     inkscape:window-y="-8"
     inkscape:window-maximized="1"
     inkscape:current-layer="layer1" />
  <defs
     id="defs2" />
  <g
     inkscape:label="Layer 1"
     inkscape:groupmode="layer"
     id="layer1"
     transform="translate(-44.361965,-117.68382)">
    <path
       id="path5997"
       style="color:#000000;fill:#000000;stroke-width:1.01806;-inkscape-stroke:none"
       d="m 47.557349,117.68518 -0.20203,1.08469 c -0.45255,-0.003 -0.90911,0.0978 -1.33326,0.30696 -1.14356,0.56394 -1.80094,1.79664 -1.63452,3.06079 0.14449,1.09751 0.88249,2.01165 1.89291,2.39624 l -0.23823,1.27796 0.62476,0.001 0.20928,-1.12086 c 1.21211,0.19093 2.42676,-0.38564 3.04427,-1.45521 l -0.51572,-0.29662 c -0.4925,0.85303 -1.45273,1.31177 -2.41898,1.16582 l 0.87436,-4.68395 c 0.43141,0.0966 0.83757,0.31305 1.16581,0.6413 l 0.41963,-0.42219 c -0.41439,-0.41437 -0.92964,-0.68538 -1.4764,-0.80357 l 0.21497,-1.15135 z m -0.31366,1.68156 -0.85162,4.56871 c -0.75766,-0.32828 -1.30391,-1.03325 -1.41491,-1.87637 -0.13343,-1.01363 0.39151,-1.99676 1.30845,-2.44895 0.30596,-0.15089 0.63209,-0.23034 0.95808,-0.24339 z" />
  </g>
</svg>
