<?xml version="1.0" encoding="UTF-8" standalone="no"?>
<!-- Created with Inkscape (http://www.inkscape.org/) -->

<svg
   width="7.9690099mm"
   height="9.9981499mm"
   viewBox="0 0 7.9690091 9.9981499"
   version="1.1"
   id="svg5"
   sodipodi:docname="cr.svg"
   inkscape:version="1.1.1 (3bf5ae0d25, 2021-09-20)"
   xmlns:inkscape="http://www.inkscape.org/namespaces/inkscape"
   xmlns:sodipodi="http://sodipodi.sourceforge.net/DTD/sodipodi-0.dtd"
   xmlns="http://www.w3.org/2000/svg"
   xmlns:svg="http://www.w3.org/2000/svg">
  <sodipodi:namedview
     id="namedview7"
     pagecolor="#ffffff"
     bordercolor="#cccccc"
     borderopacity="1"
     inkscape:pageshadow="0"
     inkscape:pageopacity="1"
     inkscape:pagecheckerboard="0"
     inkscape:document-units="mm"
     showgrid="false"
     inkscape:zoom="10.248373"
     inkscape:cx="23.906235"
     inkscape:cy="24.930788"
     inkscape:window-width="1920"
     inkscape:window-height="1017"
     inkscape:window-x="1912"
     inkscape:window-y="-8"
     inkscape:window-maximized="1"
     inkscape:current-layer="layer1" />
  <defs
     id="defs2" />
  <g
     inkscape:label="Layer 1"
     inkscape:groupmode="layer"
     id="layer1"
     transform="translate(-44.361965,-117.68382)">
    <path
       id="path5595"
       style="color:#000000;fill:#000000;stroke-width:1;-inkscape-stroke:none"
       d="m 48.346225,117.8438 c -2.19697,0 -3.98426,1.78729 -3.98426,3.98425 0,2.19697 1.78729,3.98477 3.98426,3.98477 2.19696,0 3.98475,-1.7878 3.98475,-3.98477 0,-2.19696 -1.78779,-3.98425 -3.98475,-3.98425 z m 0,0.59583 c 1.87539,0 3.391,1.51303 3.391,3.38842 0,1.87541 -1.51561,3.38895 -3.391,3.38895 -1.8754,0 -3.38842,-1.51354 -3.38842,-3.38895 0,-1.87539 1.51302,-3.38842 3.38842,-3.38842 z m 0.0232,1.2485 c -0.32861,-0.004 -0.66037,0.0682 -0.96842,0.22014 -0.82146,0.40511 -1.29519,1.29127 -1.17563,2.19935 0.11954,0.90809 0.80648,1.64137 1.70479,1.82005 0.89832,0.17869 1.81375,-0.2362 2.27171,-1.0294 l -0.51575,-0.29662 c -0.33163,0.57439 -0.9902,0.87146 -1.64071,0.74207 -0.6505,-0.12938 -1.14382,-0.65656 -1.23041,-1.31413 -0.0866,-0.65758 0.25471,-1.29468 0.84955,-1.58801 0.59486,-0.29335 1.30662,-0.17598 1.77562,0.293 l 0.4196,-0.42013 c -0.32383,-0.32382 -0.73232,-0.52618 -1.16374,-0.59738 -0.10788,-0.0178 -0.21707,-0.0277 -0.32661,-0.0289 z" />
  </g>
</svg>
