<?xml version="1.0" encoding="UTF-8" standalone="no"?>
<!-- Created with Inkscape (http://www.inkscape.org/) -->

<svg
   width="3.5527501mm"
   height="9.9981499mm"
   viewBox="0 0 3.5527499 9.9981499"
   version="1.1"
   id="svg5"
   sodipodi:docname="dollar.svg"
   inkscape:version="1.1.1 (3bf5ae0d25, 2021-09-20)"
   xmlns:inkscape="http://www.inkscape.org/namespaces/inkscape"
   xmlns:sodipodi="http://sodipodi.sourceforge.net/DTD/sodipodi-0.dtd"
   xmlns="http://www.w3.org/2000/svg"
   xmlns:svg="http://www.w3.org/2000/svg">
  <sodipodi:namedview
     id="namedview7"
     pagecolor="#ffffff"
     bordercolor="#cccccc"
     borderopacity="1"
     inkscape:pageshadow="0"
     inkscape:pageopacity="1"
     inkscape:pagecheckerboard="0"
     inkscape:document-units="mm"
     showgrid="false"
     inkscape:zoom="10.248373"
     inkscape:cx="35.029952"
     inkscape:cy="24.930788"
     inkscape:window-width="1920"
     inkscape:window-height="1017"
     inkscape:window-x="1912"
     inkscape:window-y="-8"
     inkscape:window-maximized="1"
     inkscape:current-layer="layer1" />
  <defs
     id="defs2" />
  <g
     inkscape:label="Layer 1"
     inkscape:groupmode="layer"
     id="layer1"
     transform="translate(-44.361965,-117.68382)">
    <path
       id="path6000"
       style="color:#000000;fill:#000000;stroke-width:1.01806;-inkscape-stroke:none"
       d="m 46.582495,117.68522 -0.14779,0.79272 h -0.29921 v 0.002 c -0.97668,0.002 -1.77353,0.80325 -1.77353,1.78283 0,0.85633 0.60875,1.57699 1.41438,1.74615 l -0.4501,2.41587 h -0.91519 v 0.59377 h 0.80409 l -0.1478,0.79375 0.62477,5.1e-4 0.14831,-0.79426 h 0.29714 c 0.97856,0 1.77715,-0.80189 1.77715,-1.78284 0,-0.8567 -0.60926,-1.57739 -1.41541,-1.74615 l 0.45113,-2.41639 h 0.93689 v -0.59531 h -0.82578 l 0.14779,-0.79168 z m -0.447,1.38803 h 0.004 0.18396 l -0.43821,2.3518 c -0.53214,-0.11599 -0.92759,-0.58934 -0.92759,-1.16221 0,-0.65956 0.52417,-1.18739 1.1777,-1.18959 z m 0.25477,2.99982 c 0.53279,0.1155 0.92914,0.58938 0.92914,1.16272 0,0.66094 -0.5264,1.18907 -1.18184,1.18907 h -0.18655 z" />
  </g>
</svg>
