<?xml version="1.0" encoding="UTF-8" standalone="no"?>
<!-- Created with Inkscape (http://www.inkscape.org/) -->

<svg
   width="5.3733201mm"
   height="9.9981499mm"
   viewBox="0 0 5.3733196 9.9981499"
   version="1.1"
   id="svg5"
   sodipodi:docname="pound.svg"
   inkscape:version="1.1.1 (3bf5ae0d25, 2021-09-20)"
   xmlns:inkscape="http://www.inkscape.org/namespaces/inkscape"
   xmlns:sodipodi="http://sodipodi.sourceforge.net/DTD/sodipodi-0.dtd"
   xmlns="http://www.w3.org/2000/svg"
   xmlns:svg="http://www.w3.org/2000/svg">
  <sodipodi:namedview
     id="namedview7"
     pagecolor="#ffffff"
     bordercolor="#cccccc"
     borderopacity="1"
     inkscape:pageshadow="0"
     inkscape:pageopacity="1"
     inkscape:pagecheckerboard="0"
     inkscape:document-units="mm"
     showgrid="false"
     inkscape:zoom="10.248373"
     inkscape:cx="23.906235"
     inkscape:cy="24.930788"
     inkscape:window-width="1920"
     inkscape:window-height="1017"
     inkscape:window-x="1912"
     inkscape:window-y="-8"
     inkscape:window-maximized="1"
     inkscape:current-layer="layer1" />
  <defs
     id="defs2" />
  <g
     inkscape:label="Layer 1"
     inkscape:groupmode="layer"
     id="layer1"
     transform="translate(-44.361965,-117.68382)">
    <path
       id="path5814"
       style="color:#000000;fill:#000000;stroke-width:1;-inkscape-stroke:none"
       d="m 47.892485,117.68618 c -0.31419,7.2e-4 -0.63066,0.0669 -0.93067,0.20257 -0.9144,0.41347 -1.49397,1.37241 -1.49397,2.42569 v 1.24024 h -1.10588 v 0.59583 h 1.10588 v 3.06854 h -1.10588 v 0.59377 h 1.10588 0.59531 3.67213 v -0.59377 h -3.67213 v -3.06854 h 2.01795 v -0.59583 h -2.01795 v -1.24024 c 0,-0.8344 0.46144,-1.57572 1.14464,-1.88464 0.68318,-0.30892 1.45545,-0.144 1.98644,0.43564 l 0.43924,-0.40256 c -0.34587,-0.37758 -0.78449,-0.62322 -1.25159,-0.72451 -0.16057,-0.0348 -0.3248,-0.0526 -0.4894,-0.0522 z" />
  </g>
</svg>
